<svg xmlns="http://www.w3.org/2000/svg" xmlns:xlink="http://www.w3.org/1999/xlink" version="1.1" class="marks" width="523" height="347" viewBox="0 0 523 347"><rect width="523" height="347" fill="white"/><g fill="none" stroke-miterlimit="10" transform="translate(39,10)"><g class="mark-group role-frame root" role="graphics-object" aria-roledescription="group mark container"><g transform="translate(0,0)"><path class="background" aria-hidden="true" d="M0.5,0.5h400v300h-400Z" stroke="#ddd"/><g><g class="mark-group role-axis" aria-hidden="true"><g transform="translate(0.5,300.5)"><path class="background" aria-hidden="true" d="M0,0h0v0h0Z" pointer-events="none"/><g><g class="mark-rule role-axis-grid" pointer-events="none"><line transform="translate(14,-300)" x2="0" y2="300" stroke="#ddd" stroke-width="1" opacity="1"/><line transform="translate(43,-300)" x2="0" y2="300" stroke="#ddd" stroke-width="1" opacity="1"/><line transform="translate(72,-300)" x2="0" y2="300" stroke="#ddd" stroke-width="1" opacity="1"/><line transform="translate(100,-300)" x2="0" y2="300" stroke="#ddd" stroke-width="1" opacity="1"/><line transform="translate(129,-300)" x2="0" y2="300" stroke="#ddd" stroke-width="1" opacity="1"/><line transform="translate(158,-300)" x2="0" y2="300" stroke="#ddd" stroke-width="1" opacity="1"/><line transform="translate(186,-300)" x2="0" y2="300" stroke="#ddd" stroke-width="1" opacity="1"/><line transform="translate(215,-300)" x2="0" y2="300" stroke="#ddd" stroke-width="1" opacity="1"/><line transform="translate(244,-300)" x2="0" y2="300" stroke="#ddd" stroke-width="1" opacity="1"/><line transform="translate(272,-300)" x2="0" y2="300" stroke="#ddd" stroke-width="1" opacity="1"/><line transform="translate(301,-300)" x2="0" y2="300" stroke="#ddd" stroke-width="1" opacity="1"/><line transform="translate(330,-300)" x2="0" y2="300" stroke="#ddd" stroke-width="1" opacity="1"/><line transform="translate(358,-300)" x2="0" y2="300" stroke="#ddd" stroke-width="1" opacity="1"/><line transform="translate(387,-300)" x2="0" y2="300" stroke="#ddd" stroke-width="1" opacity="1"/></g></g><path class="foreground" aria-hidden="true" d="" pointer-events="none" display="none"/></g></g><g class="mark-group role-axis" aria-hidden="true"><g transform="translate(0.5,0.5)"><path class="background" aria-hidden="true" d="M0,0h0v0h0Z" pointer-events="none"/><g><g class="mark-rule role-axis-grid" pointer-events="none"><line transform="translate(0,277)" x2="400" y2="0" stroke="#ddd" stroke-width="1" opacity="1"/><line transform="translate(0,231)" x2="400" y2="0" stroke="#ddd" stroke-width="1" opacity="1"/><line transform="translate(0,185)" x2="400" y2="0" stroke="#ddd" stroke-width="1" opacity="1"/><line transform="translate(0,138)" x2="400" y2="0" stroke="#ddd" stroke-width="1" opacity="1"/><line transform="translate(0,92)" x2="400" y2="0" stroke="#ddd" stroke-width="1" opacity="1"/><line transform="translate(0,46)" x2="400" y2="0" stroke="#ddd" stroke-width="1" opacity="1"/><line transform="translate(0,0)" x2="400" y2="0" stroke="#ddd" stroke-width="1" opacity="1"/></g></g><path class="foreground" aria-hidden="true" d="" pointer-events="none" display="none"/></g></g><g class="mark-group role-axis" role="graphics-symbol" aria-roledescription="axis" aria-label="X-axis titled 'period' for a time scale with values from Sunday, 01 January 1995, 12:00:00 AM to Thursday, 01 December 2022, 12:00:00 AM"><g transform="translate(0.5,300.5)"><path class="background" aria-hidden="true" d="M0,0h0v0h0Z" pointer-events="none"/><g><g class="mark-rule role-axis-tick" pointer-events="none"><line transform="translate(14,0)" x2="0" y2="5" stroke="#888" stroke-width="1" opacity="1"/><line transform="translate(43,0)" x2="0" y2="5" stroke="#888" stroke-width="1" opacity="1"/><line transform="translate(72,0)" x2="0" y2="5" stroke="#888" stroke-width="1" opacity="1"/><line transform="translate(100,0)" x2="0" y2="5" stroke="#888" stroke-width="1" opacity="1"/><line transform="translate(129,0)" x2="0" y2="5" stroke="#888" stroke-width="1" opacity="1"/><line transform="translate(158,0)" x2="0" y2="5" stroke="#888" stroke-width="1" opacity="1"/><line transform="translate(186,0)" x2="0" y2="5" stroke="#888" stroke-width="1" opacity="1"/><line transform="translate(215,0)" x2="0" y2="5" stroke="#888" stroke-width="1" opacity="1"/><line transform="translate(244,0)" x2="0" y2="5" stroke="#888" stroke-width="1" opacity="1"/><line transform="translate(272,0)" x2="0" y2="5" stroke="#888" stroke-width="1" opacity="1"/><line transform="translate(301,0)" x2="0" y2="5" stroke="#888" stroke-width="1" opacity="1"/><line transform="translate(330,0)" x2="0" y2="5" stroke="#888" stroke-width="1" opacity="1"/><line transform="translate(358,0)" x2="0" y2="5" stroke="#888" stroke-width="1" opacity="1"/><line transform="translate(387,0)" x2="0" y2="5" stroke="#888" stroke-width="1" opacity="1"/></g><g class="mark-text role-axis-label" pointer-events="none"><text text-anchor="middle" transform="translate(14.319340918007061,15)" font-family="sans-serif" font-size="10px" fill="#000" opacity="1">1996</text><text text-anchor="middle" transform="translate(42.997253825029425,15)" font-family="sans-serif" font-size="10px" fill="#000" opacity="1">1998</text><text text-anchor="middle" transform="translate(71.63593566104355,15)" font-family="sans-serif" font-size="10px" fill="#000" opacity="1">2000</text><text text-anchor="middle" transform="translate(100.31384856806591,15)" font-family="sans-serif" font-size="10px" fill="#000" opacity="1">2002</text><text text-anchor="middle" transform="translate(128.95253040408002,15)" font-family="sans-serif" font-size="10px" fill="#000" opacity="1">2004</text><text text-anchor="middle" transform="translate(157.6304433111024,15)" font-family="sans-serif" font-size="10px" fill="#000" opacity="1">2006</text><text text-anchor="middle" transform="translate(186.2691251471165,15)" font-family="sans-serif" font-size="10px" fill="#000" opacity="1">2008</text><text text-anchor="middle" transform="translate(214.94703805413886,15)" font-family="sans-serif" font-size="10px" fill="#000" opacity="1">2010</text><text text-anchor="middle" transform="translate(243.58571989015297,15)" font-family="sans-serif" font-size="10px" fill="#000" opacity="1">2012</text><text text-anchor="middle" transform="translate(272.2636327971754,15)" font-family="sans-serif" font-size="10px" fill="#000" opacity="1">2014</text><text text-anchor="middle" transform="translate(300.9023146331895,15)" font-family="sans-serif" font-size="10px" fill="#000" opacity="1">2016</text><text text-anchor="middle" transform="translate(329.58022754021187,15)" font-family="sans-serif" font-size="10px" fill="#000" opacity="1">2018</text><text text-anchor="middle" transform="translate(358.21890937622595,15)" font-family="sans-serif" font-size="10px" fill="#000" opacity="1">2020</text><text text-anchor="middle" transform="translate(386.89682228324835,15)" font-family="sans-serif" font-size="10px" fill="#000" opacity="1">2022</text></g><g class="mark-rule role-axis-domain" pointer-events="none"><line transform="translate(0,0)" x2="400" y2="0" stroke="#888" stroke-width="1" opacity="1"/></g><g class="mark-text role-axis-title" pointer-events="none"><text text-anchor="middle" transform="translate(200,30)" font-family="sans-serif" font-size="11px" font-weight="bold" fill="#000" opacity="1">period</text></g></g><path class="foreground" aria-hidden="true" d="" pointer-events="none" display="none"/></g></g><g class="mark-group role-axis" role="graphics-symbol" aria-roledescription="axis" aria-label="Y-axis titled 'value' for a linear scale with values from −3 to 10"><g transform="translate(0.5,0.5)"><path class="background" aria-hidden="true" d="M0,0h0v0h0Z" pointer-events="none"/><g><g class="mark-rule role-axis-tick" pointer-events="none"><line transform="translate(0,277)" x2="-5" y2="0" stroke="#888" stroke-width="1" opacity="1"/><line transform="translate(0,231)" x2="-5" y2="0" stroke="#888" stroke-width="1" opacity="1"/><line transform="translate(0,185)" x2="-5" y2="0" stroke="#888" stroke-width="1" opacity="1"/><line transform="translate(0,138)" x2="-5" y2="0" stroke="#888" stroke-width="1" opacity="1"/><line transform="translate(0,92)" x2="-5" y2="0" stroke="#888" stroke-width="1" opacity="1"/><line transform="translate(0,46)" x2="-5" y2="0" stroke="#888" stroke-width="1" opacity="1"/><line transform="translate(0,0)" x2="-5" y2="0" stroke="#888" stroke-width="1" opacity="1"/></g><g class="mark-text role-axis-label" pointer-events="none"><text text-anchor="end" transform="translate(-7,279.92307692307696)" font-family="sans-serif" font-size="10px" fill="#000" opacity="1">−2</text><text text-anchor="end" transform="translate(-7,233.76923076923075)" font-family="sans-serif" font-size="10px" fill="#000" opacity="1">0</text><text text-anchor="end" transform="translate(-7,187.6153846153846)" font-family="sans-serif" font-size="10px" fill="#000" opacity="1">2</text><text text-anchor="end" transform="translate(-7,141.46153846153848)" font-family="sans-serif" font-size="10px" fill="#000" opacity="1">4</text><text text-anchor="end" transform="translate(-7,95.3076923076923)" font-family="sans-serif" font-size="10px" fill="#000" opacity="1">6</text><text text-anchor="end" transform="translate(-7,49.15384615384615)" font-family="sans-serif" font-size="10px" fill="#000" opacity="1">8</text><text text-anchor="end" transform="translate(-7,3)" font-family="sans-serif" font-size="10px" fill="#000" opacity="1">10</text></g><g class="mark-rule role-axis-domain" pointer-events="none"><line transform="translate(0,300)" x2="0" y2="-300" stroke="#888" stroke-width="1" opacity="1"/></g><g class="mark-text role-axis-title" pointer-events="none"><text text-anchor="middle" transform="translate(-22.4013671875,150) rotate(-90) translate(0,-2)" font-family="sans-serif" font-size="11px" font-weight="bold" fill="#000" opacity="1">value</text></g></g><path class="foreground" aria-hidden="true" d="" pointer-events="none" display="none"/></g></g><g class="mark-group role-scope pathgroup" role="graphics-object" aria-roledescription="group mark container"><g transform="translate(0,0)"><path class="background" aria-hidden="true" d="M0,0h400v300h-400Z"/><g><g class="mark-line role-mark marks" role="graphics-object" aria-roledescription="line mark container"><path aria-label="series: FRA; period: Jan 01, 1995; value: 1.7199017199" role="graphics-symbol" aria-roledescription="line mark" d="M0,191.0791910791913L1.2161632012553942,190.56443760404562L2.3146331894860728,188.77700246521522L3.5291617627827905,192.32852737728183L4.706093893029947,193.97089397089385L5.9222570942853405,193.02003930907523L7.099189224532497,197.07118192786086L8.315352425787891,185.52036199095022L9.531515627043285,184.41628471286077L10.710082385249118,186.99944123672952L11.926245586504512,185.4534167916815L13.103177716751668,182.64703142948812L14.319340918007061,185.86646847516414L15.535504119262455,184.15230254695132L16.673205178501373,176.29316535691592L17.88773375179809,176.35847567910946L19.064665882045244,174.90330898152138L20.28082908330064,177.66590950948523L21.457761213547798,177.56683614892594L22.67392441480319,193.42991226280364L23.890087616058587,194.78301531955572L25.06701974630574,191.1652703731913L26.284817575519813,195.15387659431985L27.46174970576697,192.44961680386018L28.677912907022364,190.06490416257415L29.894076108277755,194.1536040670583L30.992546096508434,207.31646203958906L32.20707466980515,209.14587754775158L33.384006800052305,210.68931068931064L34.6001700013077,208.5654561275414L35.777102131554855,207.3225719181171L36.99326533281025,196.73513643756417L38.20942853406565,199.5395625844551L39.386360664312804,206.80876553686429L40.60415849352687,200.79141435337849L41.781090623774034,204.4434694162463L42.997253825029425,216.73979881197582L44.213417026284816,212.89630725541414L45.31188701451549,210.82657829723476L46.52641558781222,206.96631887967646L47.70334771805937,209.6740648304961L48.91951091931476,207.2910991133788L50.09644304956192,212.02202053265856L51.31260625081732,216.52238436804342L52.52876945207271,221.58468056529418L53.70570158231986,221.57996146435448L54.92349941153394,226.9220904768482L56.10043154178109,225.74093427720697L57.31659474303649,225.13202919477033L58.53275794429188,226.6309327920702L59.631227932522556,222.8014951800119L60.84575650581927,221.0507715867594L62.022688636066434,221.34767503483994L63.23885183732183,223.41427058408192L64.41578396756898,221.9139264419388L65.63194716882438,219.55968101947917L66.84811037007977,214.83375959079308L68.02504250032693,212.16833320210978L69.242840329541,209.79289562057474L70.41977245978815,201.84560291990906L71.63593566104355,195.25261195134206L72.85209886229894,199.49249063173107L73.98979992153785,196.36117673584224L75.20432849483457,202.90917622217654L76.38126062508172,198.5143192258823L77.59742382633713,192.3516818675033L78.77435595658429,189.8964949423664L79.99051915783969,189.37696319708792L81.20668235909507,181.23913170903234L82.38361448934222,185.66393626680485L83.6014123185563,181.28940331426986L84.77834444880345,192.8760894278137L85.99450765005885,202.78660331710756L87.21067085131425,199.32848783612005L88.30914083954492,199.76432407371647L89.52366941284163,188.4634702314263L90.7006015430888,178.71602082128396L91.91676474434419,183.17307692307668L93.09369687459134,184.25133149059525L94.30986007584674,188.66437236844615L95.52602327710214,196.33890913264315L96.7029554073493,191.9869001905599L97.92075323656336,203.53897748010326L99.09768536681052,199.51056772232357L100.31384856806591,178.64239841027563L101.5300117693213,182.23158297831577L102.62848175755197,182.44808097366598L103.8430103308487,184.956843403206L105.01994246109585,196.5497737556559L106.23610566235125,198.2665222101845L107.4130377925984,193.38393565197714L108.6292009938538,188.00271893055415L109.8453641951092,188.08130495010298L111.02229632535634,185.84720861900124L112.24009415457041,179.49347485316056L113.41702628481758,178.42456709548432L114.63318948607298,184.86322074313293L115.84935268732836,171.41731988148368L116.94782267555904,172.23674383868584L118.16235124885577,184.45355877347146L119.33928337910291,190.08295170594437L120.5554465803583,185.34002229654368L121.73237871060547,187.84838350055725L122.94854191186087,187.6685791615297L124.16470511311626,183.0277011898373L125.34163724336341,181.716566128719L126.55943507257747,178.94522914337952L127.73636720282464,180.4155561498803L128.95253040408002,184.9301828959597L130.16869360533542,191.27930892636783L131.30639466457436,191.438222092737L132.52092323787105,182.08258495090317L133.6978553681182,170.52331790672838L134.9140185693736,174.19072695633187L136.09095069962075,175.49844037868704L137.30711390087615,175.90216738548924L138.52327710213154,182.63565329320707L139.7002092323787,181.65207323250624L140.9180070615928,183.06499701848514L142.09493919183993,182.8446105109253L143.31110239309533,195.8411176996184L144.52726559435072,191.4044595432609L145.6257355825814,185.92056145879064L146.84026415587812,187.37443635876622L148.01719628612528,194.47385042389084L149.23335948738068,192.61894175188962L150.41029161762782,192.28987779242541L151.62645481888322,188.3748833488867L152.84261802013862,181.48802599916516L154.01955015038578,187.98990301580977L155.23734797959986,194.12233336283975L156.414280109847,193.89920424403178L157.6304433111024,183.29243571962007L158.84660651235777,188.6183890778949L159.94507650058847,196.78609062170702L161.1596050738852,191.33048790107006L162.33653720413236,182.9495791695494L163.55270040538775,185.62842820775262L164.7296325356349,186.0872612581041L165.9457957368903,187.30690684400702L167.16195893814566,201.55793573515106L168.33889106839283,206.2470651663503L169.5566888976069,198.87769683872997L170.73362102785404,196.30657836337227L171.94978422910944,202.02108197578153L173.16594743036484,206.55720633157478L174.26441741859554,203.2503439860847L175.47894599189223,201.81644277085064L176.6558781221394,206.0577459350467L177.8720413233948,203.22622163112968L179.04897345364193,205.24280189084678L180.26513665489733,203.5292102107246L181.48129985615273,195.7417582417583L182.6582319863999,184.56375838926186L183.87602981561398,174.3016759776538L185.0529619458611,171.08975073527492L186.2691251471165,165.72018585441415L187.4852883483719,165.07072251182976L188.62298940761082,157.39513404883058L189.83751798090756,161.0712553294696L191.0144501111547,154.1093273793856L192.2306133124101,148.35164835164838L193.40754544265727,147.37710074211324L194.62370864391266,157.87602228280178L195.83987184516803,162.01542520803716L197.0168039754152,169.27463368959138L198.23460180462925,193.26828695353038L199.41153393487642,207.69983032288798L200.62769713613181,214.45069291022315L201.84386033738718,210.72848124519865L202.9423303256179,223.80711627560026L204.1568588989146,227.7954004758131L205.33379102916177,236.68512645227048L206.54995423041717,242.0670006876902L207.7268863606643,247.5059070622212L208.94304956191968,234.95473906228204L210.1592127631751,239.14560938154412L211.33614489342224,235.6991438384304L212.55394272263635,221.60582495418322L213.7308748528835,209.66607357139918L214.94703805413886,205.34148793844122L216.16320125539428,201.21527202887515L217.26167124362496,194.08017055455045L218.47619981692165,191.91169191169178L219.65313194716884,192.7113366393725L220.86929514842421,195.9687371452078L222.04622727867135,192.09282337773945L223.26239047992678,198.70424573289046L224.47855368118215,194.6690403778154L225.65548581142934,193.96274887604378L226.8732836406434,194.5072565061877L228.05021577089053,190.17549614564518L229.26637897214596,190.57756006147937L230.48254217340133,192.51612270420048L231.581012161632,184.8935668328709L232.79554073492875,182.81907945445545L233.9724728651759,184.333365749295L235.1886360664313,182.1401651767262L236.36556819667845,185.90285454190777L237.58173139793382,179.19525130151308L238.79789459918922,179.15716523164593L239.9748267294364,176.547822633588L241.19262455865046,172.72477049366123L242.3695566888976,173.9533384373617L243.58571989015297,176.48199311715393L244.8018830914084,177.94341124538676L245.9395841506473,177.6528292857997L247.154112723944,182.6028899804474L248.3310448541912,185.01100262950916L249.54720805544656,186.23941325416916L250.72414018569376,186.04094910065078L251.94030338694913,182.70222250424354L253.15646658820455,186.71566798695048L254.3333987184517,188.0077920843826L255.55119654766574,198.0763308142424L256.72812867791293,200.0943841434639L257.9442918791683,203.77590806484716L259.16045508042373,206.71603075036572L260.2589250686544,208.31676684519508L261.4734536419511,214.88632824665194L262.65038577219826,212.30769230769215L263.86654897345363,209.27624713816243L265.0434811037008,206.13194634546923L266.2596443049562,210.72261072261074L267.4758075062116,210.4402280586973L268.6527396364587,217.70770163735594L269.87053746567284,215.11831624191203L271.04746959591995,214.4686796553597L272.2636327971754,215.79029489779995L273.47979599843075,209.53136669156063L274.57826598666145,216.64002964815975L275.7927945599581,214.06699452537816L276.96972669020533,215.00440487782276L278.1858898914607,219.6589769307923L279.36282202170787,220.08976938554417L280.57898522296324,220.60114930132963L281.79514842421867,224.05206958052472L282.97208055446583,220.33243138770771L284.18987838367985,223.34452195702931L285.366810513927,229.38184060428543L286.58297371518245,239.60561808203877L287.7991369164378,237.01311215090172L288.89760690466846,232.38074774387607L290.11213547796524,228.92676186089363L291.28906760821235,223.86135118124747L292.5052308094678,224.78001136416012L293.68216293971494,226.84065383845072L294.8983261409703,229.61883580029152L296.1144893422257,230.07636878733754L297.29142147247285,229.383922730596L298.5092193016869,229.84411859938035L299.6861514319341,226.6095610778165L300.9023146331895,225.63376336388677L302.1184778344449,235.17499381647286L303.2561788936838,234.22489460225322L304.4707074669805,235.14160351017145L305.6476395972277,231.22838164620887L306.8638027984831,226.40382317801675L308.0407349287302,225.69383031244473L309.2568981299856,225.48005059215814L310.473061331241,221.7647285181052L311.6499934614882,222.46236914770063L312.86779129070226,218.51640645469536L314.0447234209494,216.69793621013136L315.2608866222048,199.7919319275798L316.47704982346016,202.89013312269114L317.57551981169087,204.23607586175055L318.7900483849876,203.79350891889598L319.9669805152347,212.16991963260614L321.1831437164901,214.94584120043731L322.3600758467373,214.19528102819874L323.57623904799266,209.89032840295525L324.7924022492481,208.0004906395181L325.96933437949525,206.39786635602115L327.1871322087093,203.63343681729324L328.36406433895644,203.25576063281008L329.58022754021187,199.97242076716222L330.79639074146723,203.45247113376047L331.89486072969794,194.72935880961967L333.10938930299466,192.938209331652L334.2863214332418,184.07325573449356L335.5024846344972,184.0778644963403L336.67941676474436,177.9736555412499L337.89557996599973,178.69892448668676L339.11174316725516,179.98314721891154L340.28867529750227,179.80570154483217L341.5064731267164,187.12923046617507L342.6834052569635,194.06366829047238L343.8995684582189,202.19240219240214L345.1157316594743,200.36903717595808L346.214201647705,205.16563728242562L347.4287302210017,201.620377290801L348.60566235124884,209.11228864015246L349.82182555250427,203.7564834314377L350.9987576827514,206.19078829768222L352.2149208840068,206.7539321345451L353.43108408526217,209.82262233710674L354.6080162155094,213.1838451892471L355.8258140447234,206.9003978138827L357.0027461749706,197.09168766866634L358.21890937622595,196.49324561469L359.4350725774814,197.85337891295586L360.5727736367203,215.2202403429662L361.787302210017,223.24077764492264L362.96423434026417,222.36394871303344L364.18039754151954,226.13531047265968L365.3573296717667,212.86129084557896L366.57349287302213,225.70753678897864L367.7896560742775,229.665071770335L368.9665882045246,229.66464896390198L370.18438603373875,226.13265035767887L371.36131816398586,231.20887495054026L372.5774813652413,217.9658871834116L373.79364456649665,217.74389391341455L374.89211455472736,205.17478505813907L376.106643128024,202.0775704784887L377.28357525827124,197.93128273693614L378.4997384595266,196.635028298355L379.6766705897737,204.22385865869077L380.89283379102915,187.72919914798314L382.1089969922846,180.88511201854084L383.28592912253174,170.26710730662506L384.50372695174576,166.64830443117486L385.680659081993,167.2285412757974L386.89682228324835,164.91043203371976L388.1129854845037,146.9090270460136L389.2114554727344,127.33224222585949L390.42598404603115,119.3739191094189L391.60291617627826,110.8213820078227L392.8190793775337,96.00555547518137L393.99601150778085,90.44245228455765L395.2121747090362,94.31250673660776L396.4283379102916,102.64812427531295L397.60527004053876,87.68154922001055L398.82306786975283,88.8431523883027L400,95.75264790841985" stroke="#f58518" stroke-width="2"/></g></g><path class="foreground" aria-hidden="true" d="" display="none"/></g><g transform="translate(0,0)"><path class="background" aria-hidden="true" d="M0,0h400v300h-400Z"/><g><g class="mark-line role-mark marks" role="graphics-object" aria-roledescription="line mark container"><path aria-label="series: GB; period: Jan 01, 1995; value: 2.34375" role="graphics-symbol" aria-roledescription="line mark" d="M0,176.68269230769232L1.2161632012553942,176.85118619698062L2.3146331894860728,173.43526039178238L3.5291617627827905,177.43273675477064L4.706093893029947,174.0517546969156L5.9222570942853405,170.50691244239633L7.099189224532497,163.00083224349092L8.315352425787891,166.96207018787632L9.531515627043285,159.98112317130716L10.710082385249118,159.87238567883725L11.926245586504512,163.5205285512037L13.103177716751668,160.3053435114503L14.319340918007061,163.82853787433933L15.535504119262455,160.5198454513523L16.673205178501373,164.33566433566406L17.88773375179809,164.73586654309568L19.064665882045244,165.03286818129413L20.28082908330064,165.13127590971877L21.457761213547798,171.86417186417168L22.67392441480319,168.67885477750963L23.890087616058587,168.95604395604414L25.06701974630574,161.98555542817846L26.284817575519813,158.54637166112536L27.46174970576697,165.81196581196568L28.677912907022364,169.139465875371L29.894076108277755,176.22997386660623L30.992546096508434,179.78928288206632L32.20707466980515,183.46660659984204L33.384006800052305,183.6734693877549L34.6001700013077,183.74202216997014L35.777102131554855,173.3303299921161L36.99326533281025,177.0238495129327L38.20942853406565,180.60200668896323L39.386360664312804,180.67460759211852L40.60415849352687,184.08181413961796L41.781090623774034,187.54156506317906L42.997253825029425,190.75144508670508L44.213417026284816,187.47918747918763L45.31188701451549,184.21636000886744L46.52641558781222,181.10583820770344L47.70334771805937,181.31868131868137L48.91951091931476,187.97322506309632L50.09644304956192,191.20879120879107L51.31260625081732,194.66024729182593L52.52876945207271,191.4893617021276L53.70570158231986,194.8136848986704L54.92349941153394,191.54499891043798L56.10043154178109,188.33641605918854L57.31659474303649,184.8776223776227L58.53275794429188,188.27631292220494L59.631227932522556,181.877444589309L60.84575650581927,185.39325842696655L62.022688636066434,188.81118881118903L63.23885183732183,188.75242404654182L64.41578396756898,191.87554019014684L65.63194716882438,191.98448610213347L66.84811037007977,195.36530415191515L68.02504250032693,195.36530415191515L69.242840329541,195.41461324191093L70.41977245978815,195.5128205128207L71.63593566104355,205.05678165845308L72.85209886229894,201.88295709853452L73.98979992153785,208.42642834344068L75.20432849483457,208.51875397329934L76.38126062508172,208.57988165680464L77.59742382633713,202.2008253094913L78.77435595658429,202.08244793880186L79.99051915783969,208.51875397329934L81.20668235909507,199.07016060862222L82.38361448934222,199.07016060862222L83.6014123185563,195.9480848369739L84.77834444880345,202.35715037356613L85.99450765005885,202.16147488874745L87.21067085131425,202.24006762468292L88.30914083954492,202.3182297154899L89.52366941284163,196.1381047329203L90.7006015430888,186.8131868131867L91.91676474434419,186.87290969899638L93.09369687459134,192.98982054780137L94.30986007584674,183.54496799244413L95.52602327710214,193.2457786116321L96.7029554073493,196.37273295809862L97.92075323656336,202.70270270270262L99.09768536681052,199.5841995841996L100.31384856806591,189.95290423861871L101.5300117693213,190.06366767560814L102.62848175755197,190.17383158113878L103.8430103308487,193.5483870967745L105.01994246109585,203.03995070350248L106.23610566235125,206.15384615384627L107.4130377925984,196.69592152813638L108.6292009938538,199.91772932949394L109.8453641951092,200.00000000000009L111.02229632535634,193.79685734825952L112.24009415457041,193.79685734825952L113.41702628481758,190.76923076923086L114.63318948607298,196.83257918552007L115.84935268732836,196.92307692307708L116.94782267555904,193.94435351882146L118.16235124885577,194.13919413919405L119.33928337910291,200.3247412218388L120.5554465803583,203.36919017657792L121.73237871060547,200.2442002442003L122.94854191186087,200.3247412218388L124.16470511311626,200.40485829959516L125.34163724336341,200.44475892044886L126.55943507257747,200.44475892044886L127.73636720282464,200.52424639580607L128.95253040408002,197.3244147157193L130.16869360533542,197.4123117355703L131.30639466457436,203.584373741442L132.52092323787105,206.7307692307694L133.6978553681182,197.71634615384585L134.9140185693736,194.6645271286731L136.09095069962075,197.63004619401462L137.30711390087615,197.71634615384585L138.52327710213154,203.79620379620354L139.7002092323787,200.83807243340306L140.9180070615928,194.85184076623753L142.09493919183993,191.95939894516866L143.31110239309533,191.80819180819196L144.52726559435072,191.9091271422879L145.6257355825814,185.98865558762074L146.84026415587812,186.16177636796195L148.01719628612528,186.3335637404956L149.23335948738068,186.3335637404956L150.41029161762782,177.30917730917747L151.62645481888322,177.44643033474878L152.84261802013862,171.5216747309174L154.01955015038578,174.62818871269567L155.23734797959986,180.66607721780122L156.414280109847,180.8573106283029L157.6304433111024,180.66607721780122L158.84660651235777,180.79372856442922L159.94507650058847,183.912534166341L161.1596050738852,178.255372945638L162.33653720413236,175.54737453981807L163.55270040538775,169.734547568301L164.7296325356349,172.7140783744558L165.9457957368903,169.96428916127815L167.16195893814566,173.00471743525569L168.33889106839283,173.07692307692307L169.5566888976069,167.30769230769232L170.73362102785404,164.67094549286332L171.94978422910944,170.19230769230796L173.16594743036484,167.46595050834438L174.26441741859554,161.88289322617706L175.47894599189223,168.01369211752433L176.6558781221394,173.9994323020154L177.8720413233948,174.13874469089194L179.04897345364193,185.4648419065599L180.26513665489733,185.63099492194823L181.48129985615273,185.6861087630319L182.6582319863999,180.11257035647282L183.87602981561398,177.42841100505368L185.0529619458611,177.68672005960133L186.2691251471165,174.55260938817577L187.4852883483719,169.15608663181501L188.62298940761082,172.2408026755851L189.83751798090756,161.34407109136362L191.0144501111547,153.19974143503572L192.2306133124101,145.09442653155256L193.40754544265727,133.5740072202166L194.62370864391266,128.3895960154957L195.83987184516803,120.2210962690004L197.0168039754152,134.3859004956856L198.23460180462925,142.96167566084333L199.41153393487642,159.76331360946762L200.62769713613181,162.169578340803L201.84386033738718,159.8472449536276L202.9423303256179,165.53411253057925L204.1568588989146,179.54708842559285L205.33379102916177,182.52479228088947L206.54995423041717,190.79765500088814L207.7268863606643,193.46242671877752L208.94304956191968,198.97553651859045L210.1592127631751,209.67032967032972L211.33614489342224,201.69177901136632L212.55394272263635,196.404969600846L213.7308748528835,183.07868939327008L214.94703805413886,172.14425297566177L216.16320125539428,183.13338038108677L217.26167124362496,175.2577319587627L218.47619981692165,167.4725274725273L219.65313194716884,173.01128905224508L220.86929514842421,175.76180913297804L222.04622727867135,178.32167832167838L223.26239047992678,175.88640125446454L224.47855368118215,175.88640125446454L225.65548581142934,173.33797424295184L226.8732836406434,170.8629970480982L228.05021577089053,158.08600847970922L229.26637897214596,152.80665280665278L230.48254217340133,145.20311149524647L231.581012161632,148.16726897263845L232.79554073492875,143.49276974416037L233.9724728651759,143.68650217706818L235.1886360664313,146.34146341463423L236.36556819667845,141.025641025641L237.58173139793382,141.42273655548L238.79789459918922,126.10619469026561L239.9748267294364,131.43148242485975L241.19262455865046,134.2980451891343L242.3695566888976,147.72250650113264L243.58571989015297,157.86827551533412L244.8018830914084,158.2631885990497L245.9395841506473,160.99019770726017L247.154112723944,166.46054909720496L248.3310448541912,171.5343480049362L249.54720805544656,178.93870835047315L250.72414018569376,176.47058823529406L251.94030338694913,176.70189235684475L253.15646658820455,184.37118437118414L254.3333987184517,174.6031746031747L255.55119654766574,174.72179351799207L256.72812867791293,174.8987854251014L257.9442918791683,174.72179351799207L259.16045508042373,175.016160310278L260.2589250686544,172.714078374456L261.4734536419511,180.2358225715892L262.65038577219826,175.4231170289566L263.86654897345363,172.83553266816853L265.0434811037008,175.3074511695203L266.2596443049562,175.5383014488111L267.4758075062116,175.7101819342484L268.6527396364587,183.08963763509215L269.87053746567284,187.94607454401276L271.04746959591995,185.70637995098426L272.2636327971754,190.325138778747L273.47979599843075,192.89940828402368L274.57826598666145,195.37517697026908L275.7927945599581,193.09262166405045L276.96972669020533,197.86934043553202L278.1858898914607,188.3830455259027L279.36282202170787,193.09262166405045L280.57898522296324,195.59099437148217L281.79514842421867,200.37409399111525L282.97208055446583,200.40485829959516L284.18987838367985,205.07630021800037L285.366810513927,214.48511166253095L286.58297371518245,219.07879354687864L287.7991369164378,221.45463013273292L288.89760690466846,223.79735068556826L290.11213547796524,223.81835032437417L291.28906760821235,219.1844300278035L292.5052308094678,223.83227994450445L293.68216293971494,221.50139017608882L294.8983261409703,221.52922152922173L296.1144893422257,226.15384615384608L297.29142147247285,226.1584569276876L298.5092193016869,221.52922152922173L299.6861514319341,219.2192192192192L300.9023146331895,214.48511166253095L302.1184778344449,216.85349826053354L303.2561788936838,212.23354958294692L304.4707074669805,214.59921459921486L305.6476395972277,214.63152232382993L306.8638027984831,210.0207484822868L308.0407349287302,209.99999999999986L309.2568981299856,210.06212132832258L310.473061331241,200.8291110087517L311.6499934614882,200.85896157680816L312.86779129070226,196.2573817010506L314.0447234209494,189.3962611094086L315.2608866222048,186.87918687918716L316.47704982346016,177.74533159148515L317.57551981169087,177.90376953723577L318.7900483849876,171.12708365193438L319.9669805152347,168.95604395604389L321.1831437164901,173.64813404417353L322.3600758467373,171.30441411908217L323.57623904799266,166.92003648525392L324.7924022492481,167.10875331564992L325.96933437949525,167.17141126589908L327.1871322087093,165.02946954813345L328.36406433895644,167.54478398314012L329.58022754021187,169.56324618407123L330.79639074146723,174.42908653846152L331.89486072969794,176.84068609092967L333.10938930299466,179.33810375670853L334.2863214332418,177.25752508361194L335.5024846344972,177.25752508361194L336.67941676474436,177.25752508361194L337.89557996599973,175.29585798816575L339.11174316725516,179.8805221624013L340.28867529750227,179.92926613616282L341.5064731267164,182.27903901256337L342.6834052569635,184.6153846153848L343.8995684582189,188.81118881118874L345.1157316594743,188.97118134487084L346.214201647705,189.05072092512623L347.4287302210017,184.83412322274899L348.60566235124884,187.18675092612762L349.82182555250427,187.18675092612762L350.9987576827514,185.0076269339728L352.2149208840068,191.76598049837492L353.43108408526217,191.80256891326292L354.6080162155094,196.16466008218592L355.8258140447234,196.229402029215L357.0027461749706,200.60331825037687L358.21890937622595,189.56043956043968L359.4350725774814,191.87554019014706L360.5727736367203,196.26168224299087L361.787302210017,209.3222762367744L362.96423434026417,215.79810365723273L364.18039754151954,211.5206387680903L365.3573296717667,205.12820512820517L366.57349287302213,220.11506499041127L367.7896560742775,213.73829122906622L368.9665882045246,211.59173236735552L370.18438603373875,218.00779865296005L371.36131816398586,211.6270825948244L372.5774813652413,209.46089921159174L373.79364456649665,213.76965575860578L374.89211455472736,207.3948151296217L376.106643128024,192.52018699532493L377.28357525827124,179.77050573735644L378.4997384595266,175.62217194570113L379.6766705897737,184.277261200338L380.89283379102915,160.774886877828L382.1089969922846,163.14454775993238L383.28592912253174,142.0118343195265L384.50372695174576,125.00881336811676L385.680659081993,118.97060891576446L386.89682228324835,118.86832289394047L388.1129854845037,104.20475319926886L389.2114554727344,87.72175864245139L390.42598404603115,51.00334448160557L391.60291617627826,49.89604989604983L392.8190793775337,42.2593564424804L393.99601150778085,27.758596878884077L395.2121747090362,31.084883002813367L396.4283379102916,27.511634273200368L397.60527004053876,8.954008954009174L398.82306786975283,14.359873255578693L400,17.50385621353383" stroke="#e45756" stroke-width="2"/></g></g><path class="foreground" aria-hidden="true" d="" display="none"/></g><g transform="translate(0,0)"><path class="background" aria-hidden="true" d="M0,0h400v300h-400Z"/><g><g class="mark-line role-mark marks" role="graphics-object" aria-roledescription="line mark container"><path aria-label="series: USA; period: Jan 01, 1995; value: 2.80437756498" role="graphics-symbol" aria-roledescription="line mark" d="M0,166.05282542355L1.2161632012553942,164.70033034450177L2.3146331894860728,164.9247491638793L3.5291617627827905,160.3172946456533L4.706093893029947,157.2359843546289L5.9222570942853405,160.60291060291038L7.099189224532497,167.01223304996887L8.315352425787891,170.3665462054724L9.531515627043285,172.0729070126663L10.710082385249118,165.93774118857783L11.926245586504512,170.6489902882687L13.103177716751668,172.19053491598524L14.319340918007061,167.81820973437738L15.535504119262455,169.59779782841403L16.673205178501373,165.22711106594886L17.88773375179809,163.92363396971632L19.064665882045244,164.0553927019103L20.28082908330064,167.21311475409854L21.457761213547798,162.67339218158884L22.67392441480319,164.3608190370778L23.890087616058587,161.47820847559754L25.06701974630574,161.70361843751513L26.284817575519813,155.64903846153834L27.46174970576697,154.09671761463323L28.677912907022364,160.52212036668L29.894076108277755,160.74887023886424L30.992546096508434,167.03720171928273L32.20707466980515,173.18765687287845L33.384006800052305,179.192455054524L34.6001700013077,177.75268764419977L35.777102131554855,179.32386085252338L36.99326533281025,179.42197662477392L38.20942853406565,181.04708979233698L39.386360664312804,182.66193692599245L40.60415849352687,188.57309147346947L41.781090623774034,191.4831700455907L42.997253825029425,194.5075666005898L44.213417026284816,197.51301330248677L45.31188701451549,199.03846153846177L46.52641558781222,197.637568424085L47.70334771805937,191.8512468168928L48.91951091931476,191.89980325351502L50.09644304956192,191.94823867721098L51.31260625081732,193.4557979334099L52.52876945207271,196.4115289177327L53.70570158231986,196.49657273419686L54.92349941153394,195.04643962848323L56.10043154178109,193.57146263531934L57.31659474303649,192.21249047981726L58.53275794429188,193.7093172423623L59.631227932522556,190.93237219007838L60.84575650581927,178.22485207100607L62.022688636066434,182.574182574183L63.23885183732183,185.4648419065602L64.41578396756898,181.27828054298607L65.63194716882438,178.51426419357946L66.84811037007977,170.11472634944494L68.02504250032693,171.6697936210133L69.242840329541,170.26266416510282L70.41977245978815,168.81775942178606L71.63593566104355,167.564024532984L72.85209886229894,156.41805003507093L73.98979992153785,144.05594405594425L75.20432849483457,159.955567897806L76.38126062508172,157.178561510691L77.59742382633713,144.68203276867501L78.77435595658429,146.3245812375983L79.99051915783969,152.05082170970792L81.20668235909507,151.05145003894248L82.38361448934222,151.19363395225454L83.6014123185563,151.24091594679808L84.77834444880345,152.61209378856464L85.99450765005885,144.64090411957682L87.21067085131425,149.22533297091599L88.30914083954492,163.3716750539183L89.52366941284163,155.32803448740367L90.7006015430888,147.34245346490306L91.91676474434419,155.80938782794937L93.09369687459134,168.00213675213715L94.30986007584674,168.00213675213715L95.52602327710214,169.65590540720078L96.7029554073493,181.69761273209562L97.92075323656336,187.02779127822254L99.09768536681052,194.96021220159162L100.31384856806591,204.41066643236863L101.5300117693213,204.51562089787387L102.62848175755197,196.71701737535997L103.8430103308487,192.938209331652L105.01994246109585,203.49768408293977L106.23610566235125,206.1365600691443L107.4130377925984,196.96641386782224L108.6292009938538,189.16576381365115L109.8453641951092,195.82380603132185L111.02229632535634,184.01800787844647L112.24009415457041,180.0364235538981L113.41702628481758,175.91746114666338L114.63318948607298,170.82917082917078L115.84935268732836,161.97975253093406L116.94782267555904,161.07382550335566L118.16235124885577,179.43013604860107L119.33928337910291,183.28056815264839L120.5554465803583,182.0242014794543L121.73237871060547,182.07833255029246L122.94854191186087,180.96292197011604L124.16470511311626,177.220569485763L125.34163724336341,183.6734693877549L126.55943507257747,190.03776146633285L127.73636720282464,187.3963515754558L128.95253040408002,186.3172600651964L130.16869360533542,191.6985253959584L131.30639466457436,190.67902781257825L132.52092323787105,178.03632711140884L133.6978553681182,160.34374345001058L134.9140185693736,155.39550270089242L136.09095069962075,161.75178817919448L137.30711390087615,169.51412617718145L138.52327710213154,172.204685163648L139.7002092323787,157.1725571725574L140.9180070615928,149.46841776110057L142.09493919183993,155.6408865144621L143.31110239309533,162.236251869081L144.52726559435072,161.36495083863485L145.6257355825814,158.1150972826532L146.84026415587812,149.7545008183306L148.01719628612528,166.0903876662734L149.23335948738068,172.37743806009462L150.41029161762782,157.6638778328324L151.62645481888322,146.7424396184287L152.84261802013862,122.61514157248732L154.01955015038578,130.43478260869568L155.23734797959986,151.02698348771676L156.414280109847,151.94631957637733L157.6304433111024,138.80037110241622L158.84660651235777,147.75006015881976L159.94507650058847,153.16964463369L161.1596050738852,148.94458059925685L162.33653720413236,134.6153846153843L163.55270040538775,131.10539845758368L164.7296325356349,135.10747185261002L165.9457957368903,142.6445245182517L167.16195893814566,183.17597895062724L168.33889106839283,200.6487488415196L169.5566888976069,185.2226720647772L170.73362102785404,172.13883677298324L171.94978422910944,182.86977772605576L173.16594743036484,175.03387402733125L174.26441741859554,166.64356664356686L175.47894599189223,171.37621683527377L176.6558781221394,168.67236467236475L177.8720413233948,168.76066269856315L179.04897345364193,176.34851634851628L180.26513665489733,185.30576828762216L181.48129985615273,167.1911134700684L182.6582319863999,149.16520545856548L183.87602981561398,131.39530444741362L185.0529619458611,136.58610962872615L186.2691251471165,131.99321427919915L187.4852883483719,137.84872123733726L188.62298940761082,138.88947158649924L189.83751798090756,139.91792827321132L191.0144501111547,134.4105451891498L192.2306133124101,114.88176813203678L193.40754544265727,101.53562537875499L194.62370864391266,106.8033434939458L195.83987184516803,116.84013621756462L197.0168039754152,146.41877821990363L198.23460180462925,206.08673788136792L199.41153393487642,228.65970229279364L200.62769713613181,230.08046529934003L201.84386033738718,225.31866719912605L202.9423303256179,239.6205289596321L204.1568588989146,247.7742857357703L205.33379102916177,260.3408261298139L206.54995423041717,263.69483177745855L207.7268863606643,279.1652620079086L208.94304956191968,265.0234295067833L210.1592127631751,260.4509069225248L211.33614489342224,234.98880640352593L212.55394272263635,188.34701840468585L213.7308748528835,167.9692817029424L214.94703805413886,170.17595439328568L216.16320125539428,181.30772819664531L217.26167124362496,177.37016660898553L218.47619981692165,179.15891086965948L219.65313194716884,184.13109036706226L220.86929514842421,206.46117754971556L222.04622727867135,202.26478203919686L223.26239047992678,204.27451011140283L224.47855368118215,204.37655404247815L225.65548581142934,203.71874756476245L226.8732836406434,204.3885943483786L228.05021577089053,196.25253398505393L229.26637897214596,193.11122636656685L230.48254217340133,182.13266241558094L231.581012161632,168.88607851751885L232.79554073492875,157.76236478592762L233.9724728651759,148.41586650843323L235.1886360664313,148.6424249482539L236.36556819667845,147.02963117951379L237.58173139793382,143.74134971262046L238.79789459918922,141.4994575144546L239.9748267294364,149.41846335329078L241.19262455865046,152.43744021228807L242.3695566888976,162.405718964514L243.58571989015297,163.264229719596L244.8018830914084,164.51310506681054L245.9395841506473,169.58311862257474L247.154112723944,177.62908127771678L248.3310448541912,191.44029750143952L249.54720805544656,192.3693747175731L250.72414018569376,198.2665222101842L251.94030338694913,191.714330825766L253.15646658820455,184.81656736926942L254.3333987184517,180.8689938722047L255.55119654766574,190.05844970571118L256.72812867791293,190.5917914904407L257.9442918791683,193.96466150486353L259.16045508042373,185.12484208271403L260.2589250686544,196.7562412477666L261.4734536419511,206.23649119639734L262.65038577219826,199.33926787265355L263.86654897345363,190.28269510668738L265.0434811037008,185.52273203436L266.2596443049562,195.72997939515693L267.4758075062116,203.42480165648905L268.6527396364587,208.53201450822917L269.87053746567284,202.22141066460185L271.04746959591995,196.113793393422L272.2636327971754,194.33198380566807L273.47979599843075,204.77655576679592L274.57826598666145,195.87224132854385L275.7927945599581,185.7032792649979L276.96972669020533,181.68204115530762L278.1858898914607,182.94596831152938L279.36282202170787,184.79241609774624L280.57898522296324,191.5474307500883L281.79514842421867,192.50956902196015L282.97208055446583,192.36137963926063L284.18987838367985,200.2533419452869L285.366810513927,213.3116937771752L286.58297371518245,232.8311149169922L287.7991369164378,231.34914927266072L288.89760690466846,232.4685551738408L290.11213547796524,235.3734795271545L291.28906760821235,231.69075565040265L292.5052308094678,227.91297222264328L293.68216293971494,226.8560820082334L294.8983261409703,226.26740093063714L296.1144893422257,231.6029941801381L297.29142147247285,226.83289763687182L298.5092193016869,219.18928664612557L299.6861514319341,213.93415878365528L300.9023146331895,199.0826119885154L302.1184778344449,207.28154353464345L303.2561788936838,211.09531797362936L304.4707074669805,204.8051441793593L305.6476395972277,207.24640259553277L306.8638027984831,207.7540039725445L308.0407349287302,211.6814106807992L309.2568981299856,206.24135762859163L310.473061331241,196.98960813504095L311.6499934614882,193.015672594209L312.86779129070226,191.7106808652976L314.0447234209494,182.8933353930713L315.2608866222048,173.07594902185406L316.47704982346016,167.58558065793875L317.57551981169087,175.83202076676275L318.7900483849876,180.00715665190893L319.9669805152347,187.50282182673809L321.1831437164901,193.07335487869707L322.3600758467373,190.89280485294208L323.57623904799266,186.02367202942662L324.7924022492481,179.23929542300218L325.96933437949525,183.6662607236266L327.1871322087093,179.9403937226961L328.36406433895644,182.09809674072878L329.58022754021187,182.98828568595738L330.79639074146723,179.72779797141578L331.89486072969794,176.3143522160093L333.10938930299466,173.93667823073517L334.2863214332418,166.13049888905633L335.5024846344972,164.50274226192232L336.67941676474436,162.70349800045176L337.89557996599973,168.480459134136L339.11174316725516,178.22371859540792L340.28867529750227,172.5583862629142L341.5064731267164,180.53997618109844L342.6834052569635,186.6886419546609L343.8995684582189,194.97149681079L345.1157316594743,195.68918617076974L346.214201647705,187.78793675609654L347.4287302210017,184.69754364160963L348.60566235124884,189.45626610539054L349.82182555250427,192.72727716747139L350.9987576827514,188.96619677553414L352.2149208840068,190.38969485932728L353.43108408526217,191.27758815762624L354.6080162155094,190.0605474364299L355.8258140447234,183.4320465717316L357.0027461749706,178.03546753565283L358.21890937622595,173.38680103268146L359.4350725774814,176.88753313970932L360.5727736367203,195.24630018646548L361.787302210017,223.174691853766L362.96423434026417,228.04785299513748L364.18039754151954,215.86769890256582L365.3573296717667,208.0134963391456L366.57349287302213,200.54664502313724L367.7896560742775,199.12327243715885L368.9665882045246,203.49078074475048L370.18438603373875,203.66455882458555L371.36131816398586,199.33833473724647L372.5774813652413,198.46685211784433L373.79364456649665,192.08734113751154L374.89211455472736,170.31317287017276L376.106643128024,134.77627295302776L377.28357525827124,115.55292605551222L378.4997384595266,106.35112123104578L379.6766705897737,106.95057139879779L380.89283379102915,109.58604104134665L382.1089969922846,106.37656488278886L383.28592912253174,87.18764069241L384.50372695174576,73.63839600446566L385.680659081993,68.39070310280444L386.89682228324835,58.15678919332802L388.1129854845037,49.129294667555065L389.2114554727344,33.63564104209777L390.42598404603115,40.18547674886882L391.60291617627826,32.73434899208052L392.8190793775337,21.69789312036575L393.99601150778085,34.042736639411295L395.2121747090362,40.09171146654786L396.4283379102916,41.499931296146784L397.60527004053876,52.028600058348694L398.82306786975283,66.68485859557592L400,81.8215077366736" stroke="#72b7b2" stroke-width="2"/></g></g><path class="foreground" aria-hidden="true" d="" display="none"/></g><g transform="translate(0,0)"><path class="background" aria-hidden="true" d="M0,0h400v300h-400Z"/><g><g class="mark-line role-mark marks" role="graphics-object" aria-roledescription="line mark container"><path aria-label="series: Eurozone; period: Apr 01, 2001; value: 2.543279" role="graphics-symbol" aria-roledescription="line mark" d="M89.52366941284163,172.07817692307694L90.7006015430888,171.96339230769235L91.91676474434419,173.80435384615384L93.09369687459134,178.25905384615385L94.30986007584674,180.6438L95.52602327710214,180.19751538461537L96.7029554073493,179.21626153846154L97.92075323656336,180.27666923076924L99.09768536681052,181.4295L100.31384856806591,179.2591153846154L101.5300117693213,177.32455384615383L102.62848175755197,176.20086923076923L103.8430103308487,177.29603076923078L105.01994246109585,176.91627692307694L106.23610566235125,178.22042307692305L107.4130377925984,180.1225846153846L108.6292009938538,181.82568461538463L109.8453641951092,181.74443076923077L111.02229632535634,181.8477L112.24009415457041,181.34600769230772L113.41702628481758,182.16258461538462L114.63318948607298,182.7548076923077L115.84935268732836,181.60989230769232L116.94782267555904,180.6775846153846L118.16235124885577,182.44467692307694L119.33928337910291,186.9695769230769L120.5554465803583,189.12706153846153L121.73237871060547,187.58776153846154L122.94854191186087,185.76664615384615L124.16470511311626,184.39520769230765L125.34163724336341,185.30543076923075L126.55943507257747,187.5377769230769L127.73636720282464,189.17284615384617L128.95253040408002,189.96039230769233L130.16869360533542,187.0296692307692L131.30639466457436,185.09056153846154L132.52092323787105,183.46197692307692L133.6978553681182,183.8868L134.9140185693736,185.39277692307692L136.09095069962075,185.28006923076924L137.30711390087615,186.1779L138.52327710213154,187.86662307692308L139.7002092323787,187.44708461538463L140.9180070615928,188.8091076923077L142.09493919183993,189.3474692307692L143.31110239309533,193.0374923076923L144.52726559435072,191.3355923076923L145.6257355825814,188.55207692307692L146.84026415587812,182.27210769230769L148.01719628612528,183.40663846153845L149.23335948738068,183.61846153846153L150.41029161762782,185.7310846153846L151.62645481888322,184.4611153846154L152.84261802013862,182.62534615384615L154.01955015038578,181.98117692307693L155.23734797959986,182.9686153846154L156.414280109847,185.1927L157.6304433111024,185.4521307692308L158.84660651235777,181.96663846153845L159.94507650058847,179.81815384615385L161.1596050738852,177.5862692307692L162.33653720413236,179.0196923076923L163.55270040538775,180.71524615384615L164.7296325356349,182.17926923076922L165.9457957368903,182.83086923076922L167.16195893814566,184.23376153846155L168.33889106839283,186.49024615384616L169.5566888976069,186.52163076923077L170.73362102785404,184.37099999999998L171.94978422910944,180.5817923076923L173.16594743036484,180.08944615384615L174.26441741859554,178.32805384615384L175.47894599189223,176.6223923076923L176.6558781221394,176.08308461538462L177.8720413233948,178.90105384615381L179.04897345364193,182.20596923076926L180.26513665489733,182.8872L181.48129985615273,179.43034615384613L182.6582319863999,171.44598461538462L183.87602981561398,163.52259230769232L185.0529619458611,161.6994L186.2691251471165,164.2486846153846L187.4852883483719,167.13500769230768L188.62298940761082,165.54865384615383L189.83751798090756,167.6214230769231L191.0144501111547,169.45204615384614L192.2306133124101,172.39354615384616L193.40754544265727,173.34673846153845L194.62370864391266,180.07343076923075L195.83987184516803,182.7573923076923L197.0168039754152,186.97585384615388L198.23460180462925,188.16311538461542L199.41153393487642,195.4159153846154L200.62769713613181,202.56814615384616L201.84386033738718,202.62036923076923L202.9423303256179,201.8479615384615L204.1568588989146,197.01722307692307L205.33379102916177,197.7141L206.54995423041717,196.43035384615385L207.7268863606643,199.6046769230769L208.94304956191968,198.31428461538462L210.1592127631751,200.59333846153845L211.33614489342224,200.259L212.55394272263635,201.5529923076923L213.7308748528835,199.46635384615382L214.94703805413886,199.08784615384616L216.16320125539428,199.81684615384614L217.26167124362496,198.60339230769233L218.47619981692165,195.03632307692308L219.65313194716884,194.22251538461538L220.86929514842421,194.3462769230769L222.04622727867135,190.62890769230768L223.26239047992678,188.13715384615386L224.47855368118215,187.4324076923077L225.65548581142934,188.99713846153844L226.8732836406434,190.03259999999997L228.05021577089053,188.3855769230769L229.26637897214596,186.88232307692306L230.48254217340133,183.67103076923075L231.581012161632,181.09913076923075L232.79554073492875,179.6129076923077L233.9724728651759,180.47459999999998L235.1886360664313,183.6557076923077L236.36556819667845,185.00845384615386L237.58173139793382,186.43654615384614L238.79789459918922,185.6222076923077L239.9748267294364,185.39783076923075L241.19262455865046,186.0936923076923L242.3695566888976,187.66096153846152L243.58571989015297,192.13670769230768L244.8018830914084,191.87755384615383L245.9395841506473,192.18814615384616L247.154112723944,190.01441538461538L248.3310448541912,193.35226153846153L249.54720805544656,196.7181L250.72414018569376,198.02120769230766L251.94030338694913,194.41324615384616L253.15646658820455,188.24995384615383L254.3333987184517,183.43746923076924L255.55119654766574,186.02125384615385L256.72812867791293,190.8185076923077L257.9442918791683,198.20067692307694L259.16045508042373,198.13788461538462L260.2589250686544,199.61164615384618L261.4734536419511,198.85940769230768L262.65038577219826,200.32712307692307L263.86654897345363,200.6030769230769L265.0434811037008,200.24298461538464L266.2596443049562,200.91715384615384L267.4758075062116,199.47893076923074L268.6527396364587,199.66633846153846L269.87053746567284,199.05611538461537L271.04746959591995,200.0022923076923L272.2636327971754,200.9213076923077L273.47979599843075,201.27272307692306L274.57826598666145,203.8575923076923L275.7927945599581,204.83201538461537L276.96972669020533,205.1209615384615L278.1858898914607,204.26425384615385L279.36282202170787,202.78954615384615L280.57898522296324,202.5793153846154L281.79514842421867,201.53923846153847L282.97208055446583,203.32488461538463L284.18987838367985,205.04808461538462L285.366810513927,206.93305384615385L286.58297371518245,209.28311538461537L287.7991369164378,206.36903076923073L288.89760690466846,201.65363076923077L290.11213547796524,194.89045384615383L291.28906760821235,194.45314615384615L292.5052308094678,195.73516153846154L293.68216293971494,197.76563076923074L294.8983261409703,199.5008769230769L296.1144893422257,200.70773076923078L297.29142147247285,199.64573076923077L298.5092193016869,198.72959999999998L299.6861514319341,199.09848461538462L300.9023146331895,202.57624615384614L302.1184778344449,204.0502153846154L303.2561788936838,203.44412307692306L304.4707074669805,199.93336153846155L305.6476395972277,198.74942307692308L306.8638027984831,197.4261923076923L308.0407349287302,198.39826153846155L309.2568981299856,199.1370692307692L310.473061331241,200.1705L311.6499934614882,197.90921538461538L312.86779129070226,196.78539230769232L314.0447234209494,195.15683076923077L315.2608866222048,194.3159076923077L316.47704982346016,193.91840769230768L317.57551981169087,195.42364615384616L318.7900483849876,197.85505384615385L319.9669805152347,196.94923846153847L321.1831437164901,197.36266153846154L322.3600758467373,195.80503846153846L323.57623904799266,194.90095384615384L324.7924022492481,192.85393846153843L325.96933437949525,192.80238461538463L327.1871322087093,192.51692307692306L328.36406433895644,192.98194615384614L329.58022754021187,191.98144615384615L330.79639074146723,194.82604615384614L331.89486072969794,194.67743076923074L333.10938930299466,194.38472307692308L334.2863214332418,191.74813846153845L335.5024846344972,191.5987153846154L336.67941676474436,192.43456153846154L337.89557996599973,193.3746L339.11174316725516,192.12731538461537L340.28867529750227,190.76383846153846L341.5064731267164,190.33735384615383L342.6834052569635,195.09694615384615L343.8995684582189,196.76072307692306L345.1157316594743,195.34518461538462L346.214201647705,192.18025384615385L347.4287302210017,191.48233846153846L348.60566235124884,192.9764307692308L349.82182555250427,194.68714615384616L350.9987576827514,195.9738230769231L352.2149208840068,195.2214230769231L353.43108408526217,194.29444615384614L354.6080162155094,192.88876153846155L355.8258140447234,191.8728923076923L357.0027461749706,190.83447692307692L358.21890937622595,192.2538L359.4350725774814,194.38377692307694L360.5727736367203,196.57054615384615L361.787302210017,198.62813076923078L362.96423434026417,203.49166153846153L364.18039754151954,200.74610769230767L365.3573296717667,200.42305384615383L366.57349287302213,199.49436923076922L367.7896560742775,202.54749230769232L368.9665882045246,200.23885384615383L370.18438603373875,195.85188461538462L371.36131816398586,190.69996153846154L372.5774813652413,184.6786153846154L373.79364456649665,184.2247153846154L374.89211455472736,182.33635384615386L376.106643128024,186.94853076923079L377.28357525827124,183.58599230769232L378.4997384595266,182.20539230769228L379.6766705897737,174.96726923076923L380.89283379102915,171.32436923076924L382.1089969922846,168.9372230769231L383.28592912253174,162.25885384615384L384.50372695174576,155.49553846153844L385.680659081993,148.88081538461537L386.89682228324835,132.67306153846152L388.1129854845037,121.07106923076924L389.2114554727344,98.7027L390.42598404603115,92.80823076923075L391.60291617627826,84.25783846153846L392.8190793775337,86.19071538461537L393.99601150778085,89.48383846153845L395.2121747090362,98.83022307692308L396.4283379102916,104.5779692307692L397.60527004053876,104.79177692307692L398.82306786975283,108.63673846153846L400,122.61821538461538" stroke="#4c78a8" stroke-width="2"/></g></g><path class="foreground" aria-hidden="true" d="" display="none"/></g></g><g class="mark-group role-legend" role="graphics-symbol" aria-roledescription="legend" aria-label="Symbol legend titled 'series' for stroke color with 4 values: Eurozone, FRA, GB, USA"><g transform="translate(420,0)"><path class="background" aria-hidden="true" d="M0,0h59v66h-59Z" pointer-events="none"/><g><g class="mark-group role-legend-entry"><g transform="translate(0,16)"><path class="background" aria-hidden="true" d="M0,0h0v0h0Z" pointer-events="none"/><g><g class="mark-group role-scope" role="graphics-object" aria-roledescription="group mark container"><g transform="translate(0,0)"><path class="background" aria-hidden="true" d="M0,0h58.8076171875v11h-58.8076171875Z" pointer-events="none" opacity="1"/><g><g class="mark-symbol role-legend-symbol" pointer-events="none"><path transform="translate(6,6)" d="M-5,0L5,0" stroke="#4c78a8" stroke-width="1.5" opacity="1"/></g><g class="mark-text role-legend-label" pointer-events="none"><text text-anchor="start" transform="translate(16,9)" font-family="sans-serif" font-size="10px" fill="#000" opacity="1">Eurozone</text></g></g><path class="foreground" aria-hidden="true" d="" pointer-events="none" display="none"/></g><g transform="translate(0,13)"><path class="background" aria-hidden="true" d="M0,0h58.8076171875v11h-58.8076171875Z" pointer-events="none" opacity="1"/><g><g class="mark-symbol role-legend-symbol" pointer-events="none"><path transform="translate(6,6)" d="M-5,0L5,0" stroke="#f58518" stroke-width="1.5" opacity="1"/></g><g class="mark-text role-legend-label" pointer-events="none"><text text-anchor="start" transform="translate(16,9)" font-family="sans-serif" font-size="10px" fill="#000" opacity="1">FRA</text></g></g><path class="foreground" aria-hidden="true" d="" pointer-events="none" display="none"/></g><g transform="translate(0,26)"><path class="background" aria-hidden="true" d="M0,0h58.8076171875v11h-58.8076171875Z" pointer-events="none" opacity="1"/><g><g class="mark-symbol role-legend-symbol" pointer-events="none"><path transform="translate(6,6)" d="M-5,0L5,0" stroke="#e45756" stroke-width="1.5" opacity="1"/></g><g class="mark-text role-legend-label" pointer-events="none"><text text-anchor="start" transform="translate(16,9)" font-family="sans-serif" font-size="10px" fill="#000" opacity="1">GB</text></g></g><path class="foreground" aria-hidden="true" d="" pointer-events="none" display="none"/></g><g transform="translate(0,39)"><path class="background" aria-hidden="true" d="M0,0h58.8076171875v11h-58.8076171875Z" pointer-events="none" opacity="1"/><g><g class="mark-symbol role-legend-symbol" pointer-events="none"><path transform="translate(6,6)" d="M-5,0L5,0" stroke="#72b7b2" stroke-width="1.5" opacity="1"/></g><g class="mark-text role-legend-label" pointer-events="none"><text text-anchor="start" transform="translate(16,9)" font-family="sans-serif" font-size="10px" fill="#000" opacity="1">USA</text></g></g><path class="foreground" aria-hidden="true" d="" pointer-events="none" display="none"/></g></g></g><path class="foreground" aria-hidden="true" d="" pointer-events="none" display="none"/></g></g><g class="mark-text role-legend-title" pointer-events="none"><text text-anchor="start" transform="translate(0,9)" font-family="sans-serif" font-size="11px" font-weight="bold" fill="#000" opacity="1">series</text></g></g><path class="foreground" aria-hidden="true" d="" pointer-events="none" display="none"/></g></g></g><path class="foreground" aria-hidden="true" d="" display="none"/></g></g></g></svg>